<svg width="16" height="9" viewBox="0 0 16 9" fill="none" xmlns="http://www.w3.org/2000/svg">
<path d="M8.08108 8.32435C7.82849 8.32485 7.58369 8.23687 7.38919 8.07571L0.902704 2.6703C0.68193 2.4868 0.543092 2.22311 0.516736 1.93724C0.490379 1.65138 0.578663 1.36675 0.762164 1.14597C0.945665 0.9252 1.20935 0.786363 1.49522 0.760007C1.78109 0.73365 2.06571 0.821933 2.28649 1.00543L8.08108 5.84868L13.8757 1.17841C13.9863 1.08861 14.1135 1.02155 14.2501 0.981079C14.3867 0.940612 14.5299 0.927538 14.6716 0.942607C14.8132 0.957676 14.9505 1.00059 15.0755 1.06889C15.2005 1.13718 15.3108 1.22951 15.4 1.34057C15.499 1.45173 15.574 1.58213 15.6203 1.72362C15.6665 1.8651 15.6831 2.01462 15.6689 2.1628C15.6546 2.31097 15.61 2.45462 15.5377 2.58473C15.4654 2.71485 15.367 2.82863 15.2487 2.91895L8.76216 8.14057C8.56207 8.27626 8.32227 8.34097 8.08108 8.32435Z" fill="#AEC0DD"/>
</svg>
